<mxfile host="drawio-plugin" modified="2023-05-06T20:37:50.733Z" agent="5.0 (Macintosh; Intel Mac OS X 10_15_7) AppleWebKit/537.36 (KHTML, like Gecko) Chrome/104.0.5112.102 Safari/537.36" version="20.5.3" etag="5ePtNF0LiNxKHabE8GKz" type="embed"><diagram id="urGcHkvXPheTdRpSOUML" name="Page-1"><mxGraphModel dx="1122" dy="760" grid="1" gridSize="10" guides="1" tooltips="1" connect="1" arrows="1" fold="1" page="1" pageScale="1" pageWidth="850" pageHeight="1100" math="0" shadow="0"><root><mxCell id="0"/><mxCell id="1" parent="0"/><mxCell id="11" value="cz.upce.fei.checkman" style="shape=folder;fontStyle=1;spacingTop=10;tabWidth=40;tabHeight=14;tabPosition=left;html=1;align=center;verticalAlign=top;fillColor=#b1ddf0;strokeColor=#10739e;movable=1;resizable=1;rotatable=1;deletable=1;editable=1;connectable=1;" vertex="1" parent="1"><mxGeometry x="150" y="20" width="510" height="295" as="geometry"/></mxCell><mxCell id="2" value="controller" style="shape=folder;fontStyle=1;spacingTop=10;tabWidth=40;tabHeight=14;tabPosition=left;html=1;fillColor=#1ba1e2;fontColor=#ffffff;strokeColor=#006EAF;" vertex="1" parent="1"><mxGeometry x="290" y="152.5" width="70" height="50" as="geometry"/></mxCell><mxCell id="3" value="service" style="shape=folder;fontStyle=1;spacingTop=10;tabWidth=40;tabHeight=14;tabPosition=left;html=1;fillColor=#1ba1e2;fontColor=#ffffff;strokeColor=#006EAF;" vertex="1" parent="1"><mxGeometry x="420" y="152.5" width="70" height="50" as="geometry"/></mxCell><mxCell id="4" value="repository" style="shape=folder;fontStyle=1;spacingTop=10;tabWidth=40;tabHeight=14;tabPosition=left;html=1;fillColor=#1ba1e2;fontColor=#ffffff;strokeColor=#006EAF;" vertex="1" parent="1"><mxGeometry x="420" y="255" width="70" height="50" as="geometry"/></mxCell><mxCell id="5" value="dto" style="shape=folder;fontStyle=1;spacingTop=10;tabWidth=40;tabHeight=14;tabPosition=left;html=1;fillColor=#1ba1e2;fontColor=#ffffff;strokeColor=#006EAF;" vertex="1" parent="1"><mxGeometry x="290" y="60" width="70" height="50" as="geometry"/></mxCell><mxCell id="6" value="domain" style="shape=folder;fontStyle=1;spacingTop=10;tabWidth=40;tabHeight=14;tabPosition=left;html=1;fillColor=#1ba1e2;fontColor=#ffffff;strokeColor=#006EAF;" vertex="1" parent="1"><mxGeometry x="550" y="255" width="70" height="50" as="geometry"/></mxCell><mxCell id="7" value="doc" style="shape=folder;fontStyle=1;spacingTop=10;tabWidth=40;tabHeight=14;tabPosition=left;html=1;fillColor=#1ba1e2;fontColor=#ffffff;strokeColor=#006EAF;" vertex="1" parent="1"><mxGeometry x="160" y="152.5" width="70" height="50" as="geometry"/></mxCell><mxCell id="8" value="conf" style="shape=folder;fontStyle=1;spacingTop=10;tabWidth=40;tabHeight=14;tabPosition=left;html=1;fillColor=#1ba1e2;fontColor=#ffffff;strokeColor=#006EAF;" vertex="1" parent="1"><mxGeometry x="420" y="60" width="70" height="50" as="geometry"/></mxCell><mxCell id="9" value="component" style="shape=folder;fontStyle=1;spacingTop=10;tabWidth=40;tabHeight=14;tabPosition=left;html=1;fillColor=#1ba1e2;fontColor=#ffffff;strokeColor=#006EAF;" vertex="1" parent="1"><mxGeometry x="550" y="152.5" width="70" height="50" as="geometry"/></mxCell><mxCell id="20" value="" style="html=1;verticalAlign=bottom;endArrow=open;dashed=1;endSize=8;rounded=0;exitX=0;exitY=0;exitDx=70;exitDy=32;exitPerimeter=0;entryX=0;entryY=0;entryDx=0;entryDy=32;entryPerimeter=0;" edge="1" parent="1" source="2" target="3"><mxGeometry relative="1" as="geometry"><mxPoint x="510" y="430" as="sourcePoint"/><mxPoint x="430" y="430" as="targetPoint"/></mxGeometry></mxCell><mxCell id="21" value="" style="html=1;verticalAlign=bottom;endArrow=open;dashed=1;endSize=8;rounded=0;exitX=0;exitY=0;exitDx=70;exitDy=32;exitPerimeter=0;entryX=0;entryY=0;entryDx=0;entryDy=32;entryPerimeter=0;" edge="1" parent="1" source="3" target="9"><mxGeometry relative="1" as="geometry"><mxPoint x="370" y="194.5" as="sourcePoint"/><mxPoint x="430" y="194.5" as="targetPoint"/><Array as="points"/></mxGeometry></mxCell><mxCell id="22" value="" style="html=1;verticalAlign=bottom;endArrow=open;dashed=1;endSize=8;rounded=0;exitX=0.5;exitY=1;exitDx=0;exitDy=0;exitPerimeter=0;entryX=0.486;entryY=0.02;entryDx=0;entryDy=0;entryPerimeter=0;" edge="1" parent="1" source="3" target="4"><mxGeometry relative="1" as="geometry"><mxPoint x="460" y="230" as="sourcePoint"/><mxPoint x="520" y="230" as="targetPoint"/><Array as="points"/></mxGeometry></mxCell><mxCell id="24" value="" style="html=1;verticalAlign=bottom;endArrow=open;dashed=1;endSize=8;rounded=0;exitX=0;exitY=0;exitDx=70;exitDy=32;exitPerimeter=0;entryX=0;entryY=0;entryDx=0;entryDy=32;entryPerimeter=0;" edge="1" parent="1" source="4" target="6"><mxGeometry relative="1" as="geometry"><mxPoint x="500" y="194.5" as="sourcePoint"/><mxPoint x="560" y="194.5" as="targetPoint"/><Array as="points"/></mxGeometry></mxCell><mxCell id="29" value="" style="html=1;verticalAlign=bottom;endArrow=open;dashed=1;endSize=8;rounded=0;entryX=0.5;entryY=1;entryDx=0;entryDy=0;entryPerimeter=0;" edge="1" parent="1" target="8"><mxGeometry relative="1" as="geometry"><mxPoint x="455" y="150" as="sourcePoint"/><mxPoint x="560" y="194.5" as="targetPoint"/><Array as="points"/></mxGeometry></mxCell><mxCell id="30" value="" style="html=1;verticalAlign=bottom;endArrow=open;dashed=1;endSize=8;rounded=0;exitX=0;exitY=0;exitDx=0;exitDy=32;exitPerimeter=0;entryX=0;entryY=0;entryDx=70;entryDy=32;entryPerimeter=0;" edge="1" parent="1" source="2" target="7"><mxGeometry relative="1" as="geometry"><mxPoint x="370" y="194.5" as="sourcePoint"/><mxPoint x="240" y="185" as="targetPoint"/></mxGeometry></mxCell><mxCell id="34" value="" style="html=1;verticalAlign=bottom;endArrow=open;dashed=1;endSize=8;rounded=0;exitX=0.486;exitY=0.03;exitDx=0;exitDy=0;exitPerimeter=0;entryX=0.5;entryY=1;entryDx=0;entryDy=0;entryPerimeter=0;" edge="1" parent="1" source="2" target="5"><mxGeometry relative="1" as="geometry"><mxPoint x="370" y="194.5" as="sourcePoint"/><mxPoint x="430" y="194.5" as="targetPoint"/></mxGeometry></mxCell></root></mxGraphModel></diagram></mxfile>